<?xml version="1.0" standalone="no"?>
<!DOCTYPE svg PUBLIC "-//W3C//DTD SVG 20010904//EN"
 "http://www.w3.org/TR/2001/REC-SVG-20010904/DTD/svg10.dtd">
<svg version="1.0" xmlns="http://www.w3.org/2000/svg"
 width="234.000000pt" height="411.000000pt" viewBox="0 0 234.000000 411.000000"
 preserveAspectRatio="xMidYMid meet">
<metadata>
Created by potrace 1.16, written by Peter Selinger 2001-2019
</metadata>
<g transform="translate(0.000000,411.000000) scale(0.100000,-0.100000)"
fill="#000000" stroke="none">
<path d="M1075 4013 c-15 -38 -36 -86 -46 -108 -46 -107 -119 -286 -119 -293
0 -5 13 -33 30 -63 16 -30 30 -61 30 -70 0 -9 -15 -36 -33 -60 -18 -24 -53
-71 -78 -104 -24 -33 -48 -63 -53 -66 -4 -4 -50 25 -102 63 l-94 70 6 77 c6
73 5 76 -18 87 -12 5 -76 38 -140 73 l-118 63 49 -139 c58 -165 189 -514 195
-520 2 -2 30 8 61 22 72 31 187 61 302 76 94 13 398 6 488 -11 143 -26 219
-39 220 -37 1 1 7 18 14 37 7 19 17 44 22 55 18 40 179 496 179 506 0 6 -21
-1 -47 -16 -27 -15 -90 -50 -140 -77 l-93 -50 7 -56 c4 -32 7 -64 7 -73 1 -12
-126 -119 -180 -152 -7 -4 -42 36 -89 101 -43 59 -82 112 -87 118 -5 7 6 37
27 77 l36 66 -27 68 c-15 37 -54 129 -87 203 -32 74 -64 150 -70 168 -6 17
-13 32 -17 32 -4 0 -20 -30 -35 -67z m78 -581 l36 -68 -24 -45 c-14 -24 -31
-54 -37 -67 -6 -12 -16 -21 -21 -19 -5 1 -26 32 -45 68 l-36 64 38 68 c21 37
41 67 45 67 4 0 23 -31 44 -68z"/>
<path d="M975 3043 c-163 -19 -377 -90 -392 -129 -3 -8 2 -34 10 -57 9 -23 21
-54 26 -69 l10 -27 63 28 c181 82 355 116 752 146 115 9 213 18 218 21 4 3 8
13 8 24 0 15 -15 21 -87 34 -174 31 -472 46 -608 29z"/>
<path d="M1835 2900 c-38 -4 -142 -15 -230 -24 -537 -55 -787 -119 -1042 -266
-134 -77 -187 -149 -225 -307 l-21 -84 -143 -147 c-79 -81 -146 -155 -150
-165 -3 -11 12 -43 42 -88 50 -76 61 -89 124 -158 l40 -44 88 7 c48 4 151 7
229 6 124 -2 147 1 189 19 63 28 124 80 186 157 29 35 53 62 56 60 9 -9 -48
-116 -135 -256 -101 -162 -140 -237 -206 -392 -44 -102 -157 -425 -157 -448 0
-34 360 261 584 480 352 343 557 673 573 926 5 74 4 82 -18 106 -13 14 -72 77
-130 139 -165 177 -189 204 -189 210 0 5 226 81 495 164 257 80 260 81 263 98
3 15 -7 17 -75 16 -43 -1 -109 -5 -148 -9z m-1065 -474 c0 -11 -320 -186 -340
-186 -8 0 23 96 36 109 4 4 99 30 224 61 41 10 76 19 78 19 1 1 2 -1 2 -3z"/>
<path d="M1524 2652 c-8 -4 33 -54 112 -137 115 -120 125 -128 140 -113 16 15
15 19 -11 50 -63 76 -199 208 -214 208 -9 0 -21 -4 -27 -8z"/>
<path d="M1428 2623 c-10 -2 -18 -10 -18 -17 0 -7 55 -70 123 -140 101 -106
127 -127 147 -124 14 1 25 8 25 14 0 11 -248 275 -256 273 -2 -1 -12 -3 -21
-6z"/>
<path d="M1715 2124 c-41 -185 -108 -331 -236 -519 -187 -275 -449 -538 -897
-900 -61 -49 -110 -93 -109 -97 1 -3 30 -35 63 -71 l61 -64 184 181 c281 277
532 516 542 516 4 0 -2 -14 -15 -31 -13 -18 -60 -84 -105 -148 -45 -64 -116
-165 -159 -226 -43 -60 -116 -164 -163 -230 -46 -66 -101 -143 -121 -170 l-37
-51 72 -79 72 -79 40 70 c78 135 247 430 288 504 23 41 51 91 62 110 11 19 48
86 82 148 35 62 65 111 68 109 2 -3 -16 -65 -41 -138 -25 -74 -106 -314 -180
-534 -74 -219 -134 -401 -131 -403 7 -8 306 284 310 303 2 11 29 146 59 300
73 367 124 614 135 645 5 14 6 -142 3 -370 l-5 -395 93 90 92 90 -6 125 c-4
69 -13 249 -21 400 -8 151 -13 276 -11 277 4 4 88 -317 132 -502 20 -88 39
-162 40 -164 4 -5 122 104 141 130 10 13 2 51 -43 200 -30 101 -75 254 -100
339 -25 85 -47 161 -49 168 -2 6 -3 12 -1 12 7 0 63 -102 193 -350 103 -195
129 -242 135 -244 3 0 39 30 78 69 59 56 70 72 62 85 -6 8 -27 42 -47 75 -20
33 -49 80 -65 105 -16 25 -45 72 -65 105 -19 33 -59 98 -88 145 -29 47 -104
171 -166 275 -136 227 -138 228 -146 189z"/>
</g>
</svg>
